<svg width="80" height="40" viewBox="0 0 80 40" fill="none" xmlns="http://www.w3.org/2000/svg">
<path d="M1 38.8182V1H8.99574V32.2259H25.2088V38.8182H1Z" fill="black"/>
<path d="M39.7553 1L39.0352 27.4801H32.2766L31.538 1H39.7553ZM35.6559 39.2983C34.4371 39.2983 33.3907 38.8674 32.5167 38.0057C31.6426 37.1316 31.2118 36.0852 31.2241 34.8665C31.2118 33.66 31.6426 32.6259 32.5167 31.7642C33.3907 30.9025 34.4371 30.4716 35.6559 30.4716C36.8254 30.4716 37.8533 30.9025 38.7397 31.7642C39.6261 32.6259 40.0754 33.66 40.0877 34.8665C40.0754 35.679 39.86 36.4238 39.4414 37.1009C39.0352 37.7656 38.4996 38.3011 37.8349 38.7074C37.1701 39.1013 36.4438 39.2983 35.6559 39.2983Z" fill="#6DF0A8"/>
<path d="M60.7695 38.8182H47.3633V1H60.8803C64.6843 1 67.9589 1.7571 70.7042 3.27131C73.4495 4.7732 75.5607 6.93371 77.038 9.75284C78.5276 12.572 79.2724 15.9451 79.2724 19.8722C79.2724 23.8116 78.5276 27.197 77.038 30.0284C75.5607 32.8598 73.4371 35.0327 70.6673 36.5469C67.9097 38.0611 64.6104 38.8182 60.7695 38.8182ZM55.359 31.9673H60.4371C62.8008 31.9673 64.7889 31.5488 66.4016 30.7116C68.0266 29.8622 69.2454 28.5511 70.0579 26.7784C70.8827 24.9934 71.2951 22.6913 71.2951 19.8722C71.2951 17.0777 70.8827 14.794 70.0579 13.0213C69.2454 11.2486 68.0328 9.94366 66.4201 9.10653C64.8074 8.26941 62.8192 7.85085 60.4556 7.85085H55.359V31.9673Z" fill="black"/>
</svg>
